<?xml version="1.0" encoding="UTF-8" standalone="no"?>
<!-- Created with Inkscape (http://www.inkscape.org/) -->

<svg
   xmlns:dc="http://purl.org/dc/elements/1.1/"
   xmlns:cc="http://creativecommons.org/ns#"
   xmlns:rdf="http://www.w3.org/1999/02/22-rdf-syntax-ns#"
   xmlns:svg="http://www.w3.org/2000/svg"
   xmlns="http://www.w3.org/2000/svg"
   version="1.1"
   width="383"
   height="236"
   id="svg2"
   xml:space="preserve"><metadata
     id="metadata8"><rdf:RDF><cc:Work
         rdf:about=""><dc:format>image/svg+xml</dc:format><dc:type
           rdf:resource="http://purl.org/dc/dcmitype/StillImage" /><dc:title></dc:title></cc:Work></rdf:RDF></metadata><defs
     id="defs6"><clipPath
       id="clipPath16"><path
         d="M 0,0 612,0 612,792 0,792 0,0 z"
         id="path18" /></clipPath><clipPath
       id="clipPath26"><path
         d="M 0,792 612,792 612,0 0,0 0,792 z"
         id="path28" /></clipPath><clipPath
       id="clipPath34"><path
         d="m 173.935,37.076 27.498,0 0,33.618 -27.498,0 0,-33.618 z"
         id="path36" /></clipPath><clipPath
       id="clipPath174"><path
         d="m 36.001,37.076 540,0 0,35.005 -540,0 0,-35.005 z"
         id="path176" /></clipPath><clipPath
       id="clipPath4302"><path
         d="m 248.895,37.076 33.014,0 0,32.603 -33.014,0 0,-32.603 z"
         id="path4304" /></clipPath><clipPath
       id="clipPath4370"><path
         d="m 248.895,37.648 33.014,0 0,32.031 -33.014,0 0,-32.031 z"
         id="path4372" /></clipPath><clipPath
       id="clipPath4386"><path
         d="m 248.895,37.076 33.014,0 0,32.603 -33.014,0 0,-32.603 z"
         id="path4388" /></clipPath><clipPath
       id="clipPath4418"><path
         d="m 36.001,37.076 540,0 0,35.005 -540,0 0,-35.005 z"
         id="path4420" /></clipPath><clipPath
       id="clipPath5466"><path
         d="M 0,0 612,0 612,792 0,792 0,0 z"
         id="path5468" /></clipPath><clipPath
       id="clipPath5496"><path
         d="M 0,0 612,0 612,792 0,792 0,0 z"
         id="path5498" /></clipPath><clipPath
       id="clipPath5520"><path
         d="M 0,0 612,0 612,792 0,792 0,0 z"
         id="path5522" /></clipPath><clipPath
       id="clipPath5536"><path
         d="M 0,0 612,0 612,792 0,792 0,0 z"
         id="path5538" /></clipPath><clipPath
       id="clipPath5568"><path
         d="M 0,0 612,0 612,792 0,792 0,0 z"
         id="path5570" /></clipPath></defs><g
     transform="matrix(1.25,0,0,-1.25,-148.53451,285.21575)"
     id="g10"><path
       d="m 314.49697,156.16535 c -19.17996,-0.1708 -38.71416,-4.85192 -45.10327,-12.12664 -8.91311,-10.15298 9.57733,-21.64704 45.10327,-21.33075 12.0191,0.10754 22.08352,1.53086 29.80105,3.75755 l -20.33126,29.4215 c -3.12497,0.21508 -6.30687,0.30997 -9.46979,0.27834"
       id="path4232"
       style="fill:#61abd8;fill-opacity:1;fill-rule:nonzero;stroke:none" /><path
       d="m 239.70146,143.62626 c 16.14988,11.18409 47.36159,17.4277 75.09409,17.67441 1.80286,0.0127 3.61838,0.006 5.44655,-0.0316 l -42.62354,61.6833 c -3.77652,4.15608 -7.82506,6.17403 -12.0191,-0.006 L 183.20535,103.6406 c 0,0 -2.48606,-7.186154 3.69429,-8.065447 3.30209,-0.468112 50.41065,-0.664213 94.64727,-0.841337 -54.00372,6.895174 -65.83938,32.274454 -41.84545,48.892444"
       id="path4236"
       style="fill:#0c796a;fill-opacity:1;fill-rule:nonzero;stroke:none" /><path
       d="m 160.06541,72.745816 -1.73328,-6.604181 c -1.55616,-0.423832 -3.9157,-0.847663 -7.2684,-1.341079 -2.61257,-0.341596 -4.84559,-0.480764 -6.64846,-0.518719 -7.43919,0 -13.40446,1.372708 -17.87683,4.111798 -4.2826,2.599922 -6.39543,5.864057 -6.45236,9.830361 0,3.833462 2.47973,7.135552 7.32532,9.944227 5.2125,2.916214 11.79138,4.358506 19.92641,4.390135 1.86613,0 3.97896,-0.139168 6.39543,-0.385876 1.80287,-0.177124 3.28944,-0.385877 4.40911,-0.594629 l 0.61994,-6.857215 c -1.05642,0.778079 -2.54299,1.480247 -4.47238,2.112832 -2.72643,0.917247 -5.58572,1.334753 -8.62845,1.366382 -4.47237,0 -8.13503,-0.980506 -11.05125,-2.985798 -2.73276,-1.897753 -4.09282,-4.143428 -4.09282,-6.812934 0,-2.669506 1.61309,-4.984765 4.77602,-6.990057 3.16924,-1.929383 6.95842,-2.878259 11.42447,-2.916214 2.23302,0 4.59889,0.385876 7.07862,1.227213 3.22618,1.056416 5.27575,2.074877 6.26891,3.023754"
       id="path4240"
       style="fill:#231f20;fill-opacity:1;fill-rule:nonzero;stroke:none" /><path
       d="m 184.57616,72.468744 c -0.1455,-0.227731 -0.29099,-0.417506 -0.43649,-0.556675 -0.79073,-0.999483 -1.27782,-1.695326 -1.53085,-2.087528 -0.29099,-0.499742 -0.63259,-1.113349 -1.02479,-1.885102 -0.0506,-0.113865 -0.10121,-0.278337 -0.20242,-0.53137 l -18.57268,0 c 0.0506,0.08856 0.0949,0.139168 0.14549,0.164472 0.29732,0.309966 0.49342,0.506067 0.58831,0.619932 0.2467,0.303641 0.4428,0.689517 0.59463,1.246191 0.0443,0.164472 0.0949,0.423832 0.1961,0.752776 l 0,15.846239 c -0.10122,0.309966 -0.10122,0.556674 -0.1961,0.752775 -0.10122,0.525045 -0.29732,0.967854 -0.59463,1.303124 -0.1455,0.170798 -0.29099,0.341595 -0.44281,0.474438 -0.0443,0.05693 -0.1455,0.113865 -0.29099,0.253034 l 10.66537,0 c -0.15182,-0.113865 -0.24671,-0.196101 -0.34792,-0.278337 -0.24671,-0.227731 -0.44281,-0.423832 -0.5377,-0.556675 -0.1961,-0.253033 -0.3922,-0.670539 -0.49341,-1.220887 0,-0.170798 -0.0506,-0.392203 -0.1455,-0.727472 l 0,-15.846239 1.08172,0 c 1.96734,0.107539 3.92835,0.360573 6.04118,0.803382 1.82185,0.33527 3.63736,0.835011 5.50349,1.473922"
       id="path4244"
       style="fill:#231f20;fill-opacity:1;fill-rule:nonzero;stroke:none" /><path
       d="m 220.74796,67.742073 c -0.44281,0.253034 -0.68951,0.468113 -0.88561,0.613607 -0.19611,0.196101 -0.39221,0.41118 -0.58831,0.721146 -0.0949,0.113865 -0.15182,0.246708 -0.24671,0.417506 l -12.08868,19.325453 -6.97741,0 -14.79615,-19.325453 c -0.18977,-0.221405 -0.29099,-0.360573 -0.3922,-0.442809 -0.3922,-0.33527 -0.63258,-0.588304 -0.87929,-0.752776 -0.20243,-0.196101 -0.49342,-0.360573 -0.88562,-0.588303 -0.1961,-0.107539 -0.34792,-0.189775 -0.5377,-0.303641 l 11.39285,0 c -0.0949,0.139169 -0.0949,0.196102 -0.0949,0.253034 -0.10121,0.417506 -0.14549,0.721146 -0.14549,0.891944 0.0443,0.164472 0.0443,0.354247 0.14549,0.607281 0,0.05693 0.0506,0.164472 0.0949,0.33527 l 2.46075,3.612057 11.79137,0 2.22038,-3.612057 c 0.0949,-0.107539 0.13916,-0.278337 0.13916,-0.442809 0.0506,-0.196101 0.0506,-0.417506 0.0506,-0.695843 -0.0506,-0.164472 -0.0506,-0.309966 -0.0506,-0.474438 -0.0949,-0.170798 -0.0949,-0.33527 -0.13916,-0.474439 l 10.95636,0 c -0.25304,0.139169 -0.44914,0.253034 -0.54403,0.33527 m -22.21636,8.698035 4.62419,7.736507 3.09334,-7.736507 -7.71753,0 z"
       id="path4248"
       style="fill:#231f20;fill-opacity:1;fill-rule:nonzero;stroke:none" /><path
       d="m 250.0809,73.663063 -1.37271,-5.225147 c -0.74012,-0.221405 -2.11915,-0.499742 -4.18138,-0.835011 -2.65685,-0.417506 -4.91518,-0.613607 -6.82558,-0.638911 -5.90202,0 -10.6211,1.08172 -14.20785,3.251484 -3.34005,2.055899 -5.01639,4.617866 -5.06067,7.76181 0,3.055383 1.96733,5.667956 5.80079,7.86935 4.12445,2.302607 9.33695,3.447585 15.77666,3.472888 1.46759,0 3.13762,-0.08224 5.05435,-0.309966 1.52453,-0.132843 2.65685,-0.265685 3.49186,-0.468112 l 0.49342,-5.389619 c -0.88562,0.607281 -2.06855,1.163955 -3.54247,1.663697 -2.15712,0.721146 -4.42177,1.056415 -6.8762,1.081719 -3.49186,0 -6.3891,-0.803382 -8.74864,-2.384843 -2.11283,-1.480248 -3.19455,-3.25781 -3.19455,-5.370642 0,-2.138135 1.22721,-3.97263 3.78286,-5.535113 2.51136,-1.524528 5.50348,-2.28363 9.04595,-2.308933 1.76491,0 3.63104,0.309966 5.59837,0.97418 2.46076,0.809708 4.13078,1.619416 4.96579,2.391169"
       id="path4252"
       style="fill:#231f20;fill-opacity:1;fill-rule:nonzero;stroke:none" /><path
       d="m 285.51259,67.407436 -12.28479,0 0,0.164472 c 0,0.113865 0,0.253034 0.0506,0.392202 0,0.164472 0,0.303641 -0.0506,0.474439 0,0.107539 -0.10122,0.328943 -0.34792,0.63891 -0.0443,0.07591 -0.1455,0.221404 -0.29099,0.417505 l -10.32378,8.925766 -1.02479,0 0,-8.229923 c 0.0443,-0.253033 0.0949,-0.417505 0.1455,-0.588303 0.0949,-0.385877 0.1961,-0.721146 0.34159,-0.999483 0.1455,-0.221405 0.34792,-0.499742 0.63891,-0.778079 0.0443,-0.113865 0.1961,-0.221405 0.39221,-0.417506 l -10.66538,0 c 0.1455,0.164472 0.29732,0.303641 0.39853,0.417506 0.3416,0.335269 0.5377,0.588303 0.63891,0.778079 0.0949,0.202427 0.1961,0.53137 0.3416,0.999483 0,0.139168 0.0506,0.33527 0.14549,0.588303 l 0,15.846239 c -0.0443,0.221405 -0.0949,0.392202 -0.0949,0.525045 -0.10121,0.366899 -0.1961,0.695843 -0.3922,0.980506 -0.10121,0.272011 -0.34792,0.607281 -0.74012,0.999483 -0.0506,0.08224 -0.15182,0.164472 -0.29732,0.278337 l 10.66538,0 c -0.1455,-0.139168 -0.24671,-0.221404 -0.39221,-0.335269 -0.24671,-0.278338 -0.44281,-0.499742 -0.5883,-0.727472 -0.14549,-0.189776 -0.29732,-0.550349 -0.3922,-1.050091 0,-0.170797 -0.0506,-0.360573 -0.1455,-0.670539 l 0,-6.642136 1.02479,0 8.69803,7.369608 c 0.19611,0.189775 0.3416,0.328944 0.49342,0.468112 0.29732,0.360574 0.49342,0.67054 0.5883,0.885619 l 0.19611,0.702168 12.2405,0 c -0.1961,-0.03163 -0.3922,-0.07591 -0.63891,-0.170797 -0.1961,-0.0253 -0.44281,-0.10754 -0.7844,-0.246708 -0.59463,-0.196102 -1.28415,-0.531371 -2.06855,-0.97418 -0.29099,-0.170798 -0.58831,-0.366899 -1.0754,-0.664214 l -10.62109,-7.679574 12.77821,-9.58998 c 0.2467,-0.196101 0.44913,-0.341595 0.63891,-0.474438 0.44281,-0.309966 0.83501,-0.581977 1.23354,-0.809708 l 1.56881,-0.803382 z"
       id="path4256"
       style="fill:#231f20;fill-opacity:1;fill-rule:nonzero;stroke:none" /><path
       d="m 319.61015,67.742073 c -0.44281,0.253034 -0.68952,0.468113 -0.88562,0.613607 -0.1961,0.196101 -0.3922,0.41118 -0.5883,0.721146 -0.10122,0.113865 -0.1455,0.246708 -0.24671,0.417506 l -12.08869,19.325453 -6.9774,0 -14.78983,-19.325453 c -0.20242,-0.221405 -0.29731,-0.360573 -0.39853,-0.442809 -0.3922,-0.33527 -0.63891,-0.588304 -0.88561,-0.752776 -0.18978,-0.196101 -0.48709,-0.360573 -0.88562,-0.588303 -0.18978,-0.107539 -0.3416,-0.189775 -0.5377,-0.303641 l 11.39917,0 c -0.0949,0.139169 -0.0949,0.196102 -0.0949,0.253034 -0.10121,0.417506 -0.14549,0.721146 -0.14549,0.891944 0.0443,0.164472 0.0443,0.354247 0.14549,0.607281 0,0.05693 0.0506,0.164472 0.0949,0.33527 l 2.46076,3.612057 11.79137,0 2.21404,-3.612057 c 0.0949,-0.107539 0.1455,-0.278337 0.1455,-0.442809 0.0506,-0.196101 0.0506,-0.417506 0.0506,-0.695843 -0.0506,-0.164472 -0.0506,-0.309966 -0.0506,-0.474438 -0.0949,-0.170798 -0.0949,-0.33527 -0.1455,-0.474439 l 10.96269,0 c -0.25303,0.139169 -0.44281,0.253034 -0.54402,0.33527 m -22.21004,8.698035 4.61787,7.736507 3.09333,-7.736507 -7.7112,0 z"
       id="path4260"
       style="fill:#231f20;fill-opacity:1;fill-rule:nonzero;stroke:none" /><path
       d="m 361.29936,88.817887 -0.8793,-0.442809 c -0.59462,-0.33527 -1.32842,-0.803382 -2.16343,-1.448618 -0.24671,-0.196102 -0.63891,-0.493416 -1.08805,-0.891944 l 0,-15.846239 c 0.0506,-0.309966 0.0506,-0.525045 0.15182,-0.695843 0.0949,-0.525045 0.29732,-0.942551 0.54402,-1.27782 0.1455,-0.164472 0.3416,-0.360573 0.58198,-0.613607 0.0506,-0.05061 0.10121,-0.10754 0.25304,-0.196101 l -10.66538,0 c 0.0506,0.08856 0.0949,0.145494 0.18978,0.196101 0.30364,0.33527 0.54402,0.613607 0.68951,0.86664 0.0949,0.221405 0.24671,0.581978 0.44281,1.08172 0.0569,0.139168 0.0569,0.328944 0.15182,0.63891 l 0,10.899429 -10.41866,-7.028013 -10.46927,7.028013 0,-10.899429 c 0.0506,-0.309966 0.14549,-0.581978 0.1961,-0.778079 0.14549,-0.550348 0.39853,-1.024787 0.74012,-1.391685 l 0.58831,-0.613607 -10.66538,0 c 0.15182,0.145494 0.24671,0.253033 0.29732,0.335269 0.24038,0.253034 0.3922,0.474439 0.48709,0.645236 0.1961,0.246708 0.34792,0.613607 0.54402,1.138652 0.0506,0.139169 0.10121,0.354248 0.1961,0.664214 l 0,15.846239 c -0.29731,0.253033 -0.54402,0.449135 -0.74012,0.581977 -0.58831,0.474439 -1.03111,0.809708 -1.37271,1.031113 -0.1961,0.113865 -0.5883,0.33527 -1.27782,0.752775 -0.14549,0.08224 -0.3922,0.221405 -0.7338,0.417506 l 10.51355,0 c 0.0506,-0.139169 0.1455,-0.246708 0.19611,-0.33527 0.15182,-0.246708 0.2467,-0.442809 0.3922,-0.613607 0.29099,-0.328943 0.68951,-0.71482 1.32842,-1.189258 0.19611,-0.145495 0.44281,-0.360573 0.83502,-0.645236 l 8.94474,-6.174024 8.94474,6.174024 c 0.29099,0.284663 0.58831,0.474438 0.78441,0.670539 0.59463,0.506068 1.03111,0.917247 1.32842,1.252517 l 0.63259,0.860315 10.51988,0 z"
       id="path4264"
       style="fill:#231f20;fill-opacity:1;fill-rule:nonzero;stroke:none" /><path
       d="m 395.50572,67.742073 c -0.4428,0.253034 -0.68951,0.468113 -0.88561,0.613607 -0.1961,0.196101 -0.39853,0.41118 -0.58831,0.721146 -0.10121,0.113865 -0.15182,0.246708 -0.2467,0.417506 l -12.08869,19.325453 -6.97741,0 -14.79615,-19.325453 c -0.1961,-0.221405 -0.29731,-0.360573 -0.3922,-0.442809 -0.3922,-0.33527 -0.63891,-0.588304 -0.88562,-0.752776 -0.1961,-0.196101 -0.48709,-0.360573 -0.88562,-0.588303 -0.1961,-0.107539 -0.34159,-0.189775 -0.53769,-0.303641 l 11.40549,0 c -0.10121,0.139169 -0.10121,0.196102 -0.10121,0.253034 -0.10121,0.417506 -0.14549,0.721146 -0.14549,0.891944 0.0443,0.164472 0.0443,0.354247 0.14549,0.607281 0,0.05693 0.0506,0.164472 0.10121,0.33527 l 2.45443,3.612057 11.79137,0 2.21405,-3.612057 c 0.0949,-0.107539 0.14549,-0.278337 0.14549,-0.442809 0.0506,-0.196101 0.0506,-0.417506 0.0506,-0.695843 -0.0506,-0.164472 -0.0506,-0.309966 -0.0506,-0.474438 -0.10121,-0.170798 -0.10121,-0.33527 -0.14549,-0.474439 l 10.95636,0 c -0.24038,0.139169 -0.44281,0.253034 -0.5377,0.33527 m -22.21003,8.698035 4.61786,7.736507 3.09334,-7.736507 -7.7112,0 z"
       id="path4268"
       style="fill:#231f20;fill-opacity:1;fill-rule:nonzero;stroke:none" /><path
       d="m 423.29136,70.367298 c -0.97418,-1.878775 -2.92886,-3.384326 -5.92099,-4.529304 -2.92886,-1.100697 -6.31319,-1.651045 -10.15298,-1.651045 -2.14446,0 -3.83346,0.03163 -5.07332,0.139169 -1.23354,0.07591 -2.59993,0.335269 -4.29525,0.746449 l -0.32262,7.135552 c 0.1961,-0.22773 0.84766,-0.588304 1.95469,-1.252517 1.29679,-0.695843 2.53666,-1.252517 3.64368,-1.657371 0.71482,-0.253034 1.4929,-0.436483 2.40382,-0.626259 0.91092,-0.145494 1.82817,-0.221404 2.79602,-0.221404 1.17661,0 2.21405,0.15182 3.06171,0.41118 0.97418,0.290988 1.62574,0.771752 2.14446,1.467595 0.26569,0.33527 0.32895,0.626259 0.39221,0.923573 0,0.879293 -0.97418,1.764911 -2.99845,2.656855 -0.83501,0.398528 -2.53034,0.986831 -5.07333,1.76491 -3.378,1.062742 -6.04751,2.277304 -7.93893,3.713271 -2.07488,1.549831 -3.12497,3.308416 -3.12497,5.225147 0,0.145494 0,0.328943 0.0696,0.518719 l 0,0.468112 c 0.39221,2.17609 2.08121,3.915698 5.14291,5.275754 3.06171,1.360056 6.57256,2.02427 10.66538,2.02427 1.75858,0 3.64368,-0.113865 5.72489,-0.373225 2.08752,-0.215079 3.65001,-0.474438 4.62419,-0.771753 l 0,-5.66163 c 0,0.0253 -0.39221,0.215079 -1.23987,0.581978 -1.8851,0.809708 -3.44758,1.328427 -4.68112,1.549831 -1.23354,0.177124 -2.41015,0.290989 -3.64369,0.290989 -1.10702,0 -2.14446,-0.113865 -3.12497,-0.366899 -0.91092,-0.221404 -1.61941,-0.619932 -2.0812,-1.176607 -0.5883,-0.733798 -0.90459,-1.372708 -0.90459,-1.99264 0,-0.841338 0.64523,-1.657372 2.01794,-2.422799 1.16396,-0.664213 3.11232,-1.404337 5.84508,-2.17609 2.66951,-0.771753 5.01639,-1.809191 6.96475,-3.093338 2.47341,-1.58146 3.64369,-3.276787 3.64369,-5.010068 0,-0.581977 -0.12652,-1.214562 -0.51872,-1.910405"
       id="path4272"
       style="fill:#231f20;fill-opacity:1;fill-rule:nonzero;stroke:none" /><path
       d="m 203.75105,45.167667 -0.73379,-3.245158 c -0.64524,-0.202427 -1.6384,-0.41118 -3.04906,-0.651562 -1.1007,-0.177123 -2.03692,-0.246708 -2.79602,-0.259359 -3.1313,0 -5.63633,0.670539 -7.51511,2.017944 -1.80286,1.27782 -2.68848,2.884585 -2.71378,4.832944 0,1.878776 1.04376,3.504518 3.07436,4.883552 2.19507,1.435966 4.96578,2.138135 8.38174,2.157113 0.78441,0 1.67002,-0.06958 2.68848,-0.189776 0.75911,-0.08856 1.38536,-0.183449 1.85348,-0.297314 l 0.25936,-3.365349 c -0.44281,0.385876 -1.06907,0.721146 -1.87878,1.043764 -1.14498,0.449135 -2.34689,0.651562 -3.62471,0.664214 -1.87877,0 -3.42228,-0.480765 -4.64317,-1.46127 -1.15763,-0.936225 -1.72695,-2.036922 -1.72695,-3.352698 0,-1.303123 0.67686,-2.448101 2.01162,-3.428607 1.32842,-0.955202 2.91621,-1.416989 4.80131,-1.435966 0.93623,0 1.92938,0.189775 2.97947,0.607281 1.35373,0.518719 2.21405,1.01846 2.63155,1.480247"
       id="path4276"
       style="fill:#231f20;fill-opacity:1;fill-rule:nonzero;stroke:none" /><path
       d="m 234.74895,52.674546 c -1.9104,1.309449 -4.36483,1.967337 -7.36328,1.967337 -2.815,0 -5.19352,-0.607281 -7.17351,-1.828169 -1.98631,-1.20191 -2.98579,-2.707461 -2.98579,-4.485023 0.0316,-1.94836 0.94887,-3.612057 2.80235,-5.02272 1.92938,-1.448618 4.27627,-2.163438 7.04699,-2.163438 2.8656,0.0253 5.32003,0.670539 7.35695,1.99264 2.06223,1.341079 3.05538,2.928866 3.05538,4.79499 0,1.897753 -0.91724,3.466562 -2.73909,4.744383 m -1.56881,-4.15608 c 0.25936,-0.676865 0.3669,-1.366382 0.3669,-2.036921 0,-0.676866 -0.13284,-1.227214 -0.42383,-1.689001 -0.30996,-0.556674 -0.77808,-0.929899 -1.40434,-1.176607 -0.73379,-0.278337 -1.5688,-0.417505 -2.53033,-0.417505 -1.0754,0 -2.11283,0.177123 -3.1566,0.525045 -1.1513,0.373225 -2.11916,0.923573 -2.95417,1.632068 -0.62626,0.506067 -1.04376,1.069067 -1.33475,1.733281 -0.27834,0.651562 -0.43648,1.309449 -0.43648,1.998966 0.0253,0.759102 0.18345,1.429641 0.51872,2.030596 0.34159,0.626259 0.8097,1.056416 1.41066,1.315776 0.67686,0.309966 1.46127,0.468112 2.35321,0.468112 1.27782,-0.01265 2.52401,-0.278337 3.83346,-0.809708 1.25252,-0.537697 2.18875,-1.144978 2.7644,-1.866124 0.4175,-0.468112 0.72747,-1.037438 0.99315,-1.707978"
       id="path4280"
       style="fill:#231f20;fill-opacity:1;fill-rule:nonzero;stroke:none" /><path
       d="m 267.08287,41.287394 -4.88355,0 c 0.0316,0.08224 0.0316,0.189776 0.0506,0.322618 0.0316,0.10754 0.0316,0.189776 0.0316,0.246708 l 0,0.272012 c 0,0.07591 -0.0316,0.145494 -0.0822,0.246708 l -1.82184,-0.645237 c -0.58198,-0.189775 -1.126,-0.322618 -1.70165,-0.392202 -0.56933,-0.06958 -1.22089,-0.107539 -2.0053,-0.107539 -1.70165,0 -3.13129,0.449135 -4.28259,1.360056 -1.11968,0.885618 -1.67003,1.923057 -1.67003,3.112315 l 0,7.148204 c -0.0253,0.120191 -0.0569,0.202427 -0.0569,0.272011 -0.0506,0.189775 -0.10121,0.347922 -0.15182,0.518719 -0.0506,0.139169 -0.15814,0.347922 -0.3669,0.600955 -0.0506,0.09489 -0.10121,0.189776 -0.23405,0.33527 l 5.66163,0 c -0.0759,-0.08856 -0.12652,-0.158146 -0.20243,-0.22773 -0.15815,-0.189775 -0.26569,-0.341596 -0.31629,-0.442809 -0.0569,-0.158146 -0.13285,-0.385877 -0.20876,-0.676866 -0.0253,-0.08223 -0.0569,-0.208752 -0.0822,-0.37955 l 0,-7.167181 c 0,-0.449135 0.13284,-0.879292 0.44913,-1.271495 0.30997,-0.360573 0.70217,-0.626258 1.22089,-0.797056 0.49974,-0.170798 1.02479,-0.240382 1.56881,-0.240382 0.3669,0 0.7338,0.03163 1.09437,0.101213 0.3669,0.06959 0.7338,0.177124 1.1513,0.309967 l 1.95469,0.689517 0,8.375417 c 0,0.139168 -0.0253,0.272011 -0.0506,0.430157 -0.0253,0.15182 -0.0506,0.309967 -0.12651,0.468113 -0.0569,0.132842 -0.16447,0.30364 -0.3669,0.531371 -0.0569,0.06958 -0.13284,0.15182 -0.26569,0.272011 l 5.69326,0 c -0.0822,-0.08224 -0.13284,-0.145495 -0.20875,-0.215079 -0.15815,-0.196101 -0.25936,-0.347921 -0.31629,-0.455461 -0.0506,-0.08224 -0.0822,-0.202427 -0.15182,-0.37955 -0.0253,-0.15182 -0.0569,-0.379551 -0.13285,-0.651562 l 0,-9.843013 c 0,-0.164472 0.0253,-0.360573 0.0506,-0.563 0.0253,-0.208753 0.10754,-0.417506 0.23406,-0.607281 0.0822,-0.120191 0.20875,-0.25936 0.3669,-0.430158 0.0253,-0.01898 0.0569,-0.05061 0.15814,-0.120191"
       id="path4284"
       style="fill:#231f20;fill-opacity:1;fill-rule:nonzero;stroke:none" /><path
       d="m 300.11833,54.576727 c -0.0759,-0.07591 -0.13285,-0.120191 -0.15815,-0.158146 -0.10121,-0.120191 -0.20243,-0.221405 -0.25936,-0.322618 -0.10121,-0.177124 -0.20875,-0.417506 -0.31629,-0.784405 0,-0.09489 -0.019,-0.259359 -0.0759,-0.461786 l 0,-9.843013 c 0.0253,-0.189776 0.0253,-0.341596 0.0759,-0.468113 0.0569,-0.335269 0.15814,-0.613607 0.31629,-0.822359 0.0253,-0.05693 0.10121,-0.158146 0.25936,-0.328944 0,-0.01898 0,-0.05061 0.0822,-0.101214 l -4.3079,0 c -0.0506,0.08224 -0.0759,0.158146 -0.10754,0.208753 -0.0696,0.113865 -0.15182,0.234056 -0.25936,0.379551 -0.10122,0.139168 -0.28467,0.328944 -0.54403,0.569326 -0.0822,0.06326 -0.18344,0.164472 -0.36689,0.322618 l -7.4392,6.768653 0,-6.528271 c 0.0569,-0.151821 0.0569,-0.290989 0.10122,-0.398528 0.0569,-0.290989 0.15814,-0.512394 0.25936,-0.702169 0.10754,-0.15182 0.21508,-0.328944 0.31629,-0.480764 0.0253,-0.01898 0.0569,-0.06958 0.13284,-0.139169 l -5.66163,0 c 0.0759,0.08224 0.12652,0.158146 0.17713,0.221405 0.15814,0.15182 0.23405,0.284663 0.30996,0.398528 0.10754,0.177124 0.15815,0.398528 0.24038,0.702169 0,0.09489 0.0253,0.208752 0.0822,0.398528 l 0,9.843013 c -0.16447,0.139168 -0.26569,0.240382 -0.3669,0.322618 -0.24038,0.22773 -0.44281,0.398528 -0.65156,0.575652 -0.13284,0.101213 -0.3669,0.272011 -0.7591,0.53137 -0.10754,0.06958 -0.23406,0.151821 -0.41751,0.297315 l 5.71224,0 c 0.0569,-0.120191 0.0759,-0.208753 0.13284,-0.278337 0.10121,-0.202427 0.20875,-0.392202 0.31629,-0.550348 0.0949,-0.139169 0.28467,-0.316293 0.54403,-0.575652 0.0506,-0.06959 0.15814,-0.164472 0.34159,-0.322618 l 7.43919,-6.787631 0,6.787631 c -0.0316,0.189775 -0.0569,0.322618 -0.0569,0.430157 -0.0506,0.290989 -0.15182,0.537697 -0.27834,0.740124 -0.0822,0.101213 -0.18977,0.246708 -0.34159,0.436483 -0.0316,0.01265 -0.0569,0.04428 -0.13284,0.120191 l 5.66163,0 z"
       id="path4288"
       style="fill:#231f20;fill-opacity:1;fill-rule:nonzero;stroke:none" /><path
       d="m 327.41561,54.552689 -1.70165,-2.561967 c -0.20876,0.101214 -0.44281,0.18345 -0.72748,0.290989 -0.29099,0.101213 -0.49341,0.189775 -0.70217,0.240382 -0.3922,0.101213 -0.73379,0.189775 -1.06906,0.234056 -0.29099,0.05693 -0.62626,0.07591 -1.01846,0.09489 l -0.99316,0 0,-9.843013 c 0.0506,-0.189775 0.0506,-0.322618 0.10121,-0.442809 0.0506,-0.316292 0.15815,-0.569326 0.31629,-0.771753 0.0506,-0.09489 0.10122,-0.196101 0.23406,-0.33527 0.0253,-0.03163 0.0822,-0.08856 0.15815,-0.170798 l -5.64266,0 c 0.0569,0.08224 0.10754,0.170798 0.15815,0.240382 0.15815,0.221405 0.26569,0.360574 0.31629,0.449135 0.0759,0.151821 0.15815,0.430158 0.25936,0.809708 0,0.03163 0.0253,0.10754 0.0506,0.221405 l 0,9.843013 -0.98683,0 c -0.49974,0 -0.88562,-0.01898 -1.20191,-0.06958 -0.3163,-0.03163 -0.7338,-0.10754 -1.25252,-0.240382 -0.52505,-0.139169 -0.94255,-0.25936 -1.27782,-0.385877 -0.31629,-0.120191 -0.68319,-0.290989 -1.1007,-0.512393 l 1.4929,2.909888 14.5874,0 z"
       id="path4292"
       style="fill:#231f20;fill-opacity:1;fill-rule:nonzero;stroke:none" /><path
       d="m 357.09014,54.576727 c -0.0506,-0.0253 -0.10754,-0.03795 -0.13284,-0.05061 -0.17713,-0.09489 -0.31629,-0.177123 -0.44281,-0.259359 -0.17712,-0.145495 -0.36057,-0.347922 -0.60096,-0.588304 -0.0759,-0.08856 -0.15814,-0.208753 -0.25936,-0.366899 l -4.97844,-5.731214 0,-4.573585 c 0.0443,-0.164472 0.0443,-0.303641 0.10122,-0.430158 0.0443,-0.322618 0.15182,-0.581977 0.28466,-0.759101 0.019,-0.06326 0.12652,-0.170798 0.25936,-0.341595 0.0253,-0.03163 0.0759,-0.10754 0.15815,-0.189776 l -5.71857,0 c 0.0506,0.08224 0.10754,0.139169 0.18345,0.189776 0.13285,0.158146 0.23406,0.278337 0.29099,0.37955 0.0759,0.170798 0.15182,0.417506 0.27834,0.721146 0.0316,0.10754 0.0569,0.240382 0.13284,0.430158 l 0,4.573585 -5.32003,5.731214 c -0.0506,0.05061 -0.0822,0.10754 -0.13284,0.158146 -0.23406,0.246708 -0.41751,0.436484 -0.57566,0.550349 -0.0759,0.08856 -0.23405,0.208753 -0.46811,0.366899 -0.0569,0.04428 -0.15815,0.107539 -0.28466,0.189775 l 6.28789,0 c -0.0253,-0.05061 -0.0759,-0.08224 -0.10754,-0.120191 -0.0759,-0.120191 -0.12652,-0.215079 -0.17713,-0.278337 -0.0316,-0.05693 -0.0316,-0.139169 -0.0569,-0.240382 0,-0.139169 0,-0.25936 0.0569,-0.366899 0,-0.08224 0.019,-0.170798 0.0759,-0.25936 l 2.95417,-3.22618 2.13181,3.22618 c 0,0.06959 0.0316,0.145495 0.0506,0.227731 l 0,0.309966 0,0.170798 c 0,0.07591 0,0.139168 -0.0506,0.208753 0,0.05061 -0.0506,0.139168 -0.17712,0.265685 0,0.0063 -0.0316,0.03163 -0.0759,0.08224 l 6.31319,0 z"
       id="path4296"
       style="fill:#231f20;fill-opacity:1;fill-rule:nonzero;stroke:none" /></g></svg>