<?xml version="1.0" encoding="UTF-8" standalone="no"?>
<!-- Created with Inkscape (http://www.inkscape.org/) -->

<svg
   xmlns:dc="http://purl.org/dc/elements/1.1/"
   xmlns:cc="http://creativecommons.org/ns#"
   xmlns:rdf="http://www.w3.org/1999/02/22-rdf-syntax-ns#"
   xmlns:svg="http://www.w3.org/2000/svg"
   xmlns="http://www.w3.org/2000/svg"
   xmlns:sodipodi="http://sodipodi.sourceforge.net/DTD/sodipodi-0.dtd"
   xmlns:inkscape="http://www.inkscape.org/namespaces/inkscape"
   id="svg2"
   version="1.1"
   inkscape:version="0.48.5 r10040"
   width="990"
   height="765"
   xml:space="preserve"
   sodipodi:docname="OKB_final.ai"><metadata
     id="metadata8"><rdf:RDF><cc:Work
         rdf:about=""><dc:format>image/svg+xml</dc:format><dc:type
           rdf:resource="http://purl.org/dc/dcmitype/StillImage" /><dc:title></dc:title></cc:Work></rdf:RDF></metadata><defs
     id="defs6"><clipPath
       clipPathUnits="userSpaceOnUse"
       id="clipPath16"><path
         d="M 0,612 792,612 792,0 0,0 0,612 z"
         id="path18" /></clipPath></defs><sodipodi:namedview
     pagecolor="#ffffff"
     bordercolor="#666666"
     borderopacity="1"
     objecttolerance="10"
     gridtolerance="10"
     guidetolerance="10"
     inkscape:pageopacity="0"
     inkscape:pageshadow="2"
     inkscape:window-width="640"
     inkscape:window-height="480"
     id="namedview4"
     showgrid="false"
     inkscape:zoom="0.30849673"
     inkscape:cx="495"
     inkscape:cy="382.5"
     inkscape:window-x="0"
     inkscape:window-y="0"
     inkscape:window-maximized="0"
     inkscape:current-layer="g10" /><g
     id="g10"
     inkscape:groupmode="layer"
     inkscape:label="OKB_final"
     transform="matrix(1.25,0,0,-1.25,0,765)"><g
       id="g12"><g
         id="g14"
         clip-path="url(#clipPath16)"><g
           id="g20"
           transform="translate(234.1563,189.7637)"><path
             d="m 0,0 0,0.035 c 0,2.449 -1.783,4.485 -4.285,4.485 -2.502,0 -4.25,-2 -4.25,-4.448 l 0,-0.037 c 0,-2.447 1.783,-4.465 4.285,-4.465 C -1.746,-4.43 0,-2.449 0,0 m -10.857,0 0,0.035 c 0,3.547 2.736,6.518 6.607,6.518 3.871,0 6.572,-2.934 6.572,-6.481 l 0,-0.037 c 0,-3.547 -2.736,-6.517 -6.607,-6.517 -3.871,0 -6.572,2.935 -6.572,6.482"
             style="fill:#8aa75e;fill-opacity:1;fill-rule:nonzero;stroke:none"
             id="path22" /></g><g
           id="g24"
           transform="translate(248.2129,189.8535)"><path
             d="m 0,0 c 1.584,0 2.592,0.828 2.592,2.107 l 0,0.036 c 0,1.349 -0.973,2.087 -2.61,2.087 l -3.224,0 0,-4.23 L 0,0 z m -5.457,6.248 5.619,0 c 1.584,0 2.826,-0.469 3.637,-1.26 C 4.465,4.303 4.844,3.367 4.844,2.27 l 0,-0.038 c 0,-2.07 -1.244,-3.312 -2.99,-3.816 l 3.404,-4.771 -2.629,0 -3.098,4.392 -2.773,0 0,-4.392 -2.215,0 0,12.603 z"
             style="fill:#8aa75e;fill-opacity:1;fill-rule:nonzero;stroke:none"
             id="path26" /></g><g
           id="g28"
           transform="translate(259.3711,196.1016)"><path
             d="m 0,0 9.344,0 0,-1.98 -7.129,0 0,-3.278 6.32,0 0,-1.98 -6.32,0 0,-3.385 7.221,0 0,-1.981 -9.436,0 L 0,0 z"
             style="fill:#8aa75e;fill-opacity:1;fill-rule:nonzero;stroke:none"
             id="path30" /></g><g
           id="g32"
           transform="translate(274.4727,189.7637)"><path
             d="m 0,0 0,0.035 c 0,3.529 2.699,6.518 6.5,6.518 2.195,0 3.547,-0.612 4.842,-1.709 L 9.938,3.168 C 8.967,3.996 8.012,4.52 6.41,4.52 4.086,4.52 2.322,2.484 2.322,0.072 l 0,-0.037 c 0,-2.592 1.711,-4.5 4.285,-4.5 1.188,0 2.27,0.377 3.043,0.953 l 0,2.36 -3.222,0 0,1.925 5.365,0 0,-5.293 C 10.551,-5.582 8.768,-6.482 6.535,-6.482 2.592,-6.482 0,-3.674 0,0"
             style="fill:#8aa75e;fill-opacity:1;fill-rule:nonzero;stroke:none"
             id="path34" /></g><g
           id="g36"
           transform="translate(303.043,189.7637)"><path
             d="m 0,0 0,0.035 c 0,2.449 -1.783,4.485 -4.285,4.485 -2.504,0 -4.25,-2 -4.25,-4.448 l 0,-0.037 c 0,-2.447 1.783,-4.465 4.285,-4.465 C -1.748,-4.43 0,-2.449 0,0 m -10.857,0 0,0.035 c 0,3.547 2.736,6.518 6.607,6.518 3.871,0 6.572,-2.934 6.572,-6.481 l 0,-0.037 c 0,-3.547 -2.736,-6.517 -6.607,-6.517 -3.873,0 -6.572,2.935 -6.572,6.482"
             style="fill:#8aa75e;fill-opacity:1;fill-rule:nonzero;stroke:none"
             id="path38" /></g><g
           id="g40"
           transform="translate(311.6426,196.1016)"><path
             d="m 0,0 2.053,0 6.752,-8.715 0,8.715 2.177,0 0,-12.604 -1.853,0 -6.951,8.967 0,-8.967 -2.178,0 L 0,0 z"
             style="fill:#8aa75e;fill-opacity:1;fill-rule:nonzero;stroke:none"
             id="path42" /></g><g
           id="g44"
           transform="translate(338.4609,196.1016)"><path
             d="m 0,0 2.215,0 0,-6.338 5.996,6.338 2.736,0 -5.256,-5.42 5.491,-7.184 -2.702,0 -4.302,5.672 -1.963,-2.017 0,-3.655 -2.215,0 L 0,0 z"
             style="fill:#8aa75e;fill-opacity:1;fill-rule:nonzero;stroke:none"
             id="path46" /></g><g
           id="g48"
           transform="translate(355.1289,196.1016)"><path
             d="m 0,0 2.053,0 6.752,-8.715 0,8.715 2.179,0 0,-12.604 -1.855,0 -6.949,8.967 0,-8.967 -2.18,0 L 0,0 z"
             style="fill:#8aa75e;fill-opacity:1;fill-rule:nonzero;stroke:none"
             id="path50" /></g><g
           id="g52"
           transform="translate(383.25,189.7637)"><path
             d="m 0,0 0,0.035 c 0,2.449 -1.783,4.485 -4.285,4.485 -2.504,0 -4.25,-2 -4.25,-4.448 l 0,-0.037 c 0,-2.447 1.783,-4.465 4.285,-4.465 C -1.748,-4.43 0,-2.449 0,0 m -10.857,0 0,0.035 c 0,3.547 2.736,6.518 6.607,6.518 3.871,0 6.572,-2.934 6.572,-6.481 l 0,-0.037 c 0,-3.547 -2.736,-6.517 -6.607,-6.517 -3.873,0 -6.572,2.935 -6.572,6.482"
             style="fill:#8aa75e;fill-opacity:1;fill-rule:nonzero;stroke:none"
             id="path54" /></g><g
           id="g56"
           transform="translate(390.1758,196.1016)"><path
             d="m 0,0 2.395,0 3.005,-9.346 3.098,9.381 1.873,0 3.096,-9.381 3.008,9.346 2.322,0 -4.375,-12.693 -1.928,0 -3.096,9.056 -3.097,-9.056 -1.908,0 L 0,0 z"
             style="fill:#8aa75e;fill-opacity:1;fill-rule:nonzero;stroke:none"
             id="path58" /></g><g
           id="g60"
           transform="translate(414.834,196.1016)"><path
             d="m 0,0 2.215,0 0,-10.588 6.627,0 0,-2.016 -8.842,0 L 0,0 z"
             style="fill:#8aa75e;fill-opacity:1;fill-rule:nonzero;stroke:none"
             id="path62" /></g><g
           id="g64"
           transform="translate(429.5762,196.1016)"><path
             d="m 0,0 9.346,0 0,-1.98 -7.131,0 0,-3.278 6.32,0 0,-1.98 -6.32,0 0,-3.385 7.221,0 0,-1.981 -9.436,0 L 0,0 z"
             style="fill:#8aa75e;fill-opacity:1;fill-rule:nonzero;stroke:none"
             id="path66" /></g><g
           id="g68"
           transform="translate(447.4512,194.084)"><path
             d="m 0,0 0,-8.57 2.484,0 c 2.647,0 4.375,1.783 4.375,4.25 l 0,0.035 C 6.859,-1.818 5.131,0 2.484,0 L 0,0 z m -2.215,2.018 4.699,0 c 3.961,0 6.698,-2.719 6.698,-6.266 l 0,-0.037 c 0,-3.547 -2.737,-6.301 -6.698,-6.301 l -4.699,0 0,12.604 z"
             style="fill:#8aa75e;fill-opacity:1;fill-rule:nonzero;stroke:none"
             id="path70" /></g><g
           id="g72"
           transform="translate(462.3555,189.7637)"><path
             d="m 0,0 0,0.035 c 0,3.529 2.699,6.518 6.5,6.518 2.195,0 3.547,-0.612 4.842,-1.709 L 9.938,3.168 C 8.967,3.996 8.012,4.52 6.41,4.52 4.086,4.52 2.322,2.484 2.322,0.072 l 0,-0.037 c 0,-2.592 1.711,-4.5 4.285,-4.5 1.188,0 2.27,0.377 3.043,0.953 l 0,2.36 -3.222,0 0,1.925 5.365,0 0,-5.293 C 10.551,-5.582 8.768,-6.482 6.535,-6.482 2.592,-6.482 0,-3.674 0,0"
             style="fill:#8aa75e;fill-opacity:1;fill-rule:nonzero;stroke:none"
             id="path74" /></g><g
           id="g76"
           transform="translate(480.625,196.1016)"><path
             d="m 0,0 9.344,0 0,-1.98 -7.129,0 0,-3.278 6.32,0 0,-1.98 -6.32,0 0,-3.385 7.221,0 0,-1.981 -9.436,0 L 0,0 z"
             style="fill:#8aa75e;fill-opacity:1;fill-rule:nonzero;stroke:none"
             id="path78" /></g><g
           id="g80"
           transform="translate(510.9746,188.918)"><path
             d="m 0,0 -3.512,0 0,-3.457 3.674,0 c 1.512,0 2.43,0.594 2.43,1.728 l 0,0.036 C 2.592,-0.631 1.746,0 0,0 m 1.891,3.619 c 0,0.99 -0.793,1.602 -2.215,1.602 l -3.188,0 0,-3.35 3.026,0 c 1.422,0 2.377,0.559 2.377,1.711 l 0,0.037 z m -7.582,3.565 5.654,0 C 1.404,7.184 2.537,6.787 3.258,6.066 3.816,5.51 4.104,4.824 4.104,3.979 l 0,-0.038 C 4.104,2.43 3.24,1.619 2.305,1.133 3.781,0.629 4.807,-0.217 4.807,-1.928 l 0,-0.035 c 0,-2.252 -1.856,-3.457 -4.664,-3.457 l -5.834,0 0,12.604 z"
             style="fill:#8aa75e;fill-opacity:1;fill-rule:nonzero;stroke:none"
             id="path82" /></g><g
           id="g84"
           transform="translate(529.5137,188.5039)"><path
             d="M 0,0 -2.178,5.041 -4.34,0 0,0 z m -3.168,7.688 2.053,0 5.545,-12.694 -2.34,0 -1.279,3.043 -5.959,0 -1.297,-3.043 -2.27,0 5.547,12.694 z"
             style="fill:#8aa75e;fill-opacity:1;fill-rule:nonzero;stroke:none"
             id="path86" /></g><g
           id="g88"
           transform="translate(539.6992,196.1016)"><path
             d="m 0,0 2.053,0 6.752,-8.715 0,8.715 2.179,0 0,-12.604 -1.855,0 -6.949,8.967 0,-8.967 -2.18,0 L 0,0 z"
             style="fill:#8aa75e;fill-opacity:1;fill-rule:nonzero;stroke:none"
             id="path90" /></g><g
           id="g92"
           transform="translate(557.5195,196.1016)"><path
             d="m 0,0 2.215,0 0,-6.338 5.996,6.338 2.736,0 -5.258,-5.42 5.493,-7.184 -2.702,0 -4.302,5.672 -1.963,-2.017 0,-3.655 -2.215,0 L 0,0 z"
             style="fill:#8aa75e;fill-opacity:1;fill-rule:nonzero;stroke:none"
             id="path94" /></g><g
           id="g96"
           transform="translate(266.1406,163.1582)"><path
             d="M 0,0 -1.09,2.521 -2.17,0 0,0 z m -1.584,3.844 1.025,0 2.774,-6.346 -1.17,0 -0.641,1.522 -2.978,0 -0.649,-1.522 -1.134,0 2.773,6.346 z"
             style="fill:#8aa75e;fill-opacity:1;fill-rule:nonzero;stroke:none"
             id="path98" /></g><g
           id="g100"
           transform="translate(275.4551,163.7891)"><path
             d="m 0,0 0,0.018 c 0,1.791 1.342,3.259 3.25,3.259 1.16,0 1.863,-0.406 2.467,-0.982 L 5.006,1.477 C 4.5,1.943 3.961,2.26 3.24,2.26 2.043,2.26 1.16,1.27 1.16,0.035 l 0,-0.017 c 0,-1.233 0.873,-2.233 2.08,-2.233 0.774,0 1.27,0.307 1.811,0.811 L 5.762,-2.125 C 5.104,-2.809 4.383,-3.242 3.205,-3.242 1.367,-3.242 0,-1.811 0,0"
             style="fill:#8aa75e;fill-opacity:1;fill-rule:nonzero;stroke:none"
             id="path102" /></g><g
           id="g104"
           transform="translate(284.1758,166.957)"><path
             d="m 0,0 1.107,0 0,-5.293 3.313,0 0,-1.008 -4.42,0 L 0,0 z"
             style="fill:#8aa75e;fill-opacity:1;fill-rule:nonzero;stroke:none"
             id="path106" /></g><g
           id="g108"
           transform="translate(291.5469,166.957)"><path
             d="m 0,0 4.672,0 0,-0.99 -3.565,0 0,-1.639 3.161,0 0,-0.99 -3.161,0 0,-1.692 3.61,0 0,-0.99 L 0,-6.301 0,0 z"
             style="fill:#8aa75e;fill-opacity:1;fill-rule:nonzero;stroke:none"
             id="path110" /></g><g
           id="g112"
           transform="translate(303.1934,163.1582)"><path
             d="M 0,0 -1.088,2.521 -2.168,0 0,0 z m -1.584,3.844 1.027,0 2.772,-6.346 -1.17,0 -0.639,1.522 -2.98,0 -0.649,-1.522 -1.132,0 2.771,6.346 z"
             style="fill:#8aa75e;fill-opacity:1;fill-rule:nonzero;stroke:none"
             id="path114" /></g><g
           id="g116"
           transform="translate(311.0156,163.834)"><path
             d="m 0,0 c 0.791,0 1.295,0.414 1.295,1.053 l 0,0.017 c 0,0.676 -0.484,1.045 -1.305,1.045 l -1.611,0 L -1.621,0 0,0 z m -2.729,3.123 2.809,0 c 0.793,0 1.414,-0.234 1.818,-0.629 0.334,-0.342 0.524,-0.81 0.524,-1.359 l 0,-0.02 c 0,-1.035 -0.621,-1.656 -1.494,-1.908 l 1.701,-2.385 -1.315,0 -1.548,2.196 -1.387,0 0,-2.196 -1.108,0 0,6.301 z"
             style="fill:#8aa75e;fill-opacity:1;fill-rule:nonzero;stroke:none"
             id="path118" /></g><path
           d="m 316.656,166.957 1.107,0 0,-6.301 -1.107,0 0,6.301 z"
           style="fill:#8aa75e;fill-opacity:1;fill-rule:nonzero;stroke:none"
           id="path120" /><g
           id="g122"
           transform="translate(321.248,166.957)"><path
             d="m 0,0 1.025,0 3.377,-4.357 0,4.357 1.088,0 0,-6.301 -0.926,0 -3.476,4.483 0,-4.483 L 0,-6.301 0,0 z"
             style="fill:#8aa75e;fill-opacity:1;fill-rule:nonzero;stroke:none"
             id="path124" /></g><g
           id="g126"
           transform="translate(329.8789,163.7891)"><path
             d="m 0,0 0,0.018 c 0,1.763 1.35,3.259 3.25,3.259 1.098,0 1.773,-0.306 2.422,-0.855 L 4.969,1.584 C 4.482,1.998 4.006,2.26 3.205,2.26 2.043,2.26 1.16,1.242 1.16,0.035 l 0,-0.017 c 0,-1.297 0.856,-2.25 2.143,-2.25 0.595,0 1.135,0.187 1.521,0.476 l 0,1.18 -1.611,0 0,0.963 2.683,0 0,-2.647 C 5.275,-2.791 4.383,-3.242 3.268,-3.242 1.295,-3.242 0,-1.836 0,0"
             style="fill:#8aa75e;fill-opacity:1;fill-rule:nonzero;stroke:none"
             id="path128" /></g><g
           id="g130"
           transform="translate(339.0137,166.957)"><path
             d="m 0,0 1.107,0 0,-2.619 3.006,0 0,2.619 1.108,0 0,-6.301 -1.108,0 0,2.656 -3.006,0 0,-2.656 L 0,-6.301 0,0 z"
             style="fill:#8aa75e;fill-opacity:1;fill-rule:nonzero;stroke:none"
             id="path132" /></g><g
           id="g134"
           transform="translate(352.8027,163.7891)"><path
             d="m 0,0 0,0.018 c 0,1.224 -0.893,2.242 -2.143,2.242 -1.252,0 -2.125,-1 -2.125,-2.225 l 0,-0.017 c 0,-1.225 0.891,-2.233 2.143,-2.233 C -0.873,-2.215 0,-1.225 0,0 m -5.43,0 0,0.018 c 0,1.773 1.369,3.259 3.305,3.259 1.936,0 3.285,-1.468 3.285,-3.242 l 0,-0.017 c 0,-1.774 -1.367,-3.26 -3.303,-3.26 -1.935,0 -3.287,1.469 -3.287,3.242"
             style="fill:#8aa75e;fill-opacity:1;fill-rule:nonzero;stroke:none"
             id="path136" /></g><g
           id="g138"
           transform="translate(357.0039,163.3301)"><path
             d="m 0,0 0,3.627 1.107,0 0,-3.582 c 0,-1.17 0.604,-1.791 1.594,-1.791 0.981,0 1.584,0.584 1.584,1.746 l 0,3.627 1.108,0 0,-3.574 C 5.393,-1.828 4.33,-2.773 2.682,-2.773 1.045,-2.773 0,-1.828 0,0"
             style="fill:#8aa75e;fill-opacity:1;fill-rule:nonzero;stroke:none"
             id="path140" /></g><g
           id="g142"
           transform="translate(365.293,161.5742)"><path
             d="m 0,0 0.666,0.793 c 0.604,-0.523 1.215,-0.82 1.99,-0.82 0.684,0 1.115,0.324 1.115,0.793 l 0,0.017 C 3.771,1.232 3.52,1.477 2.35,1.746 1.008,2.07 0.252,2.467 0.252,3.627 l 0,0.019 c 0,1.081 0.9,1.827 2.152,1.827 0.918,0 1.647,-0.278 2.285,-0.791 L 4.096,3.844 C 3.529,4.268 2.961,4.492 2.385,4.492 1.738,4.492 1.359,4.158 1.359,3.744 l 0,-0.017 C 1.359,3.24 1.646,3.025 2.863,2.736 4.195,2.412 4.879,1.936 4.879,0.891 l 0,-0.018 c 0,-1.18 -0.928,-1.881 -2.25,-1.881 C 1.666,-1.008 0.756,-0.676 0,0"
             style="fill:#8aa75e;fill-opacity:1;fill-rule:nonzero;stroke:none"
             id="path144" /></g><g
           id="g146"
           transform="translate(373.2754,166.957)"><path
             d="m 0,0 4.672,0 0,-0.99 -3.565,0 0,-1.639 3.161,0 0,-0.99 -3.161,0 0,-1.692 3.61,0 0,-0.99 L 0,-6.301 0,0 z"
             style="fill:#8aa75e;fill-opacity:1;fill-rule:nonzero;stroke:none"
             id="path148" /></g><g
           id="g150"
           transform="translate(385.6055,166.957)"><path
             d="m 0,0 4.691,0 0,-1.008 -3.584,0 0,-1.719 3.178,0 0,-1.009 -3.178,0 0,-2.565 L 0,-6.301 0,0 z"
             style="fill:#8aa75e;fill-opacity:1;fill-rule:nonzero;stroke:none"
             id="path152" /></g><g
           id="g154"
           transform="translate(398.4063,163.7891)"><path
             d="m 0,0 0,0.018 c 0,1.224 -0.893,2.242 -2.143,2.242 -1.252,0 -2.125,-1 -2.125,-2.225 l 0,-0.017 c 0,-1.225 0.891,-2.233 2.143,-2.233 C -0.873,-2.215 0,-1.225 0,0 m -5.43,0 0,0.018 c 0,1.773 1.369,3.259 3.305,3.259 1.936,0 3.285,-1.468 3.285,-3.242 l 0,-0.017 c 0,-1.774 -1.367,-3.26 -3.303,-3.26 -1.935,0 -3.287,1.469 -3.287,3.242"
             style="fill:#8aa75e;fill-opacity:1;fill-rule:nonzero;stroke:none"
             id="path156" /></g><g
           id="g158"
           transform="translate(405.4355,163.834)"><path
             d="m 0,0 c 0.791,0 1.295,0.414 1.295,1.053 l 0,0.017 c 0,0.676 -0.484,1.045 -1.305,1.045 l -1.611,0 L -1.621,0 0,0 z m -2.729,3.123 2.809,0 c 0.793,0 1.414,-0.234 1.818,-0.629 0.334,-0.342 0.524,-0.81 0.524,-1.359 l 0,-0.02 c 0,-1.035 -0.621,-1.656 -1.494,-1.908 l 1.701,-2.385 -1.315,0 -1.548,2.196 -1.387,0 0,-2.196 -1.108,0 0,6.301 z"
             style="fill:#8aa75e;fill-opacity:1;fill-rule:nonzero;stroke:none"
             id="path160" /></g><g
           id="g162"
           transform="translate(415.2344,163.7891)"><path
             d="m 0,0 0,0.018 c 0,1.791 1.342,3.259 3.25,3.259 1.162,0 1.863,-0.406 2.467,-0.982 L 5.006,1.477 C 4.502,1.943 3.961,2.26 3.242,2.26 2.045,2.26 1.162,1.27 1.162,0.035 l 0,-0.017 c 0,-1.233 0.873,-2.233 2.08,-2.233 0.774,0 1.27,0.307 1.809,0.811 L 5.762,-2.125 C 5.105,-2.809 4.385,-3.242 3.205,-3.242 1.369,-3.242 0,-1.811 0,0"
             style="fill:#8aa75e;fill-opacity:1;fill-rule:nonzero;stroke:none"
             id="path164" /></g><g
           id="g166"
           transform="translate(426.6836,163.834)"><path
             d="m 0,0 c 0.791,0 1.295,0.414 1.295,1.053 l 0,0.017 c 0,0.676 -0.484,1.045 -1.305,1.045 l -1.611,0 L -1.621,0 0,0 z m -2.729,3.123 2.809,0 c 0.793,0 1.414,-0.234 1.818,-0.629 0.334,-0.342 0.524,-0.81 0.524,-1.359 l 0,-0.02 c 0,-1.035 -0.621,-1.656 -1.494,-1.908 l 1.701,-2.385 -1.315,0 -1.548,2.196 -1.387,0 0,-2.196 -1.108,0 0,6.301 z"
             style="fill:#8aa75e;fill-opacity:1;fill-rule:nonzero;stroke:none"
             id="path168" /></g><path
           d="m 432.324,166.957 1.107,0 0,-6.301 -1.107,0 0,6.301 z"
           style="fill:#8aa75e;fill-opacity:1;fill-rule:nonzero;stroke:none"
           id="path170" /><g
           id="g172"
           transform="translate(436.916,166.957)"><path
             d="M 0,0 1.178,0 3.096,-2.979 5.014,0 l 1.179,0 0,-6.301 -1.107,0 0,4.52 -1.99,-2.971 -0.035,0 -1.973,2.951 0,-4.5 L 0,-6.301 0,0 z"
             style="fill:#8aa75e;fill-opacity:1;fill-rule:nonzero;stroke:none"
             id="path174" /></g><path
           d="m 446.59,166.957 1.107,0 0,-6.301 -1.107,0 0,6.301 z"
           style="fill:#8aa75e;fill-opacity:1;fill-rule:nonzero;stroke:none"
           id="path176" /><g
           id="g178"
           transform="translate(451.1797,166.957)"><path
             d="m 0,0 1.025,0 3.377,-4.357 0,4.357 1.088,0 0,-6.301 -0.926,0 -3.476,4.483 0,-4.483 L 0,-6.301 0,0 z"
             style="fill:#8aa75e;fill-opacity:1;fill-rule:nonzero;stroke:none"
             id="path180" /></g><g
           id="g182"
           transform="translate(463.9063,163.1582)"><path
             d="M 0,0 -1.09,2.521 -2.17,0 0,0 z m -1.584,3.844 1.025,0 2.774,-6.346 -1.17,0 -0.641,1.522 -2.978,0 -0.649,-1.522 -1.134,0 2.773,6.346 z"
             style="fill:#8aa75e;fill-opacity:1;fill-rule:nonzero;stroke:none"
             id="path184" /></g><g
           id="g186"
           transform="translate(469,166.957)"><path
             d="m 0,0 1.107,0 0,-5.293 3.313,0 0,-1.008 -4.42,0 L 0,0 z"
             style="fill:#8aa75e;fill-opacity:1;fill-rule:nonzero;stroke:none"
             id="path188" /></g><g
           id="g190"
           transform="translate(480.25,161.584)"><path
             d="M 0,0 0.729,0.756 C 1.098,0.277 1.467,0.008 1.998,0.008 c 0.596,0 1,0.396 1,1.242 l 0,4.123 1.143,0 0,-4.158 C 4.141,0.467 3.916,-0.092 3.547,-0.461 3.178,-0.83 2.646,-1.018 2.018,-1.018 1.045,-1.018 0.414,-0.568 0,0"
             style="fill:#8aa75e;fill-opacity:1;fill-rule:nonzero;stroke:none"
             id="path192" /></g><g
           id="g194"
           transform="translate(487.6113,163.3301)"><path
             d="m 0,0 0,3.627 1.107,0 0,-3.582 c 0,-1.17 0.604,-1.791 1.594,-1.791 0.983,0 1.584,0.584 1.584,1.746 l 0,3.627 1.108,0 0,-3.574 C 5.393,-1.828 4.332,-2.773 2.684,-2.773 1.045,-2.773 0,-1.828 0,0"
             style="fill:#8aa75e;fill-opacity:1;fill-rule:nonzero;stroke:none"
             id="path196" /></g><g
           id="g198"
           transform="translate(495.9004,161.5742)"><path
             d="m 0,0 0.666,0.793 c 0.604,-0.523 1.215,-0.82 1.99,-0.82 0.684,0 1.115,0.324 1.115,0.793 l 0,0.017 C 3.771,1.232 3.52,1.477 2.35,1.746 1.008,2.07 0.252,2.467 0.252,3.627 l 0,0.019 c 0,1.081 0.9,1.827 2.152,1.827 0.918,0 1.647,-0.278 2.285,-0.791 L 4.096,3.844 C 3.529,4.268 2.961,4.492 2.385,4.492 1.738,4.492 1.359,4.158 1.359,3.744 l 0,-0.017 C 1.359,3.24 1.646,3.025 2.863,2.736 4.195,2.412 4.879,1.936 4.879,0.891 l 0,-0.018 c 0,-1.18 -0.928,-1.881 -2.25,-1.881 C 1.666,-1.008 0.756,-0.676 0,0"
             style="fill:#8aa75e;fill-opacity:1;fill-rule:nonzero;stroke:none"
             id="path200" /></g><g
           id="g202"
           transform="translate(505.2949,165.9316)"><path
             d="m 0,0 -1.998,0 0,1.025 5.113,0 0,-1.025 -1.998,0 0,-5.275 L 0,-5.275 0,0 z"
             style="fill:#8aa75e;fill-opacity:1;fill-rule:nonzero;stroke:none"
             id="path204" /></g><path
           d="m 511.443,166.957 1.107,0 0,-6.301 -1.107,0 0,6.301 z"
           style="fill:#8aa75e;fill-opacity:1;fill-rule:nonzero;stroke:none"
           id="path206" /><g
           id="g208"
           transform="translate(515.7539,163.7891)"><path
             d="m 0,0 0,0.018 c 0,1.791 1.342,3.259 3.25,3.259 1.162,0 1.863,-0.406 2.467,-0.982 L 5.006,1.477 C 4.502,1.943 3.961,2.26 3.242,2.26 2.045,2.26 1.162,1.27 1.162,0.035 l 0,-0.017 c 0,-1.233 0.873,-2.233 2.08,-2.233 0.774,0 1.27,0.307 1.809,0.811 L 5.762,-2.125 C 5.105,-2.809 4.385,-3.242 3.205,-3.242 1.369,-3.242 0,-1.811 0,0"
             style="fill:#8aa75e;fill-opacity:1;fill-rule:nonzero;stroke:none"
             id="path210" /></g><g
           id="g212"
           transform="translate(524.4746,166.957)"><path
             d="m 0,0 4.672,0 0,-0.99 -3.565,0 0,-1.639 3.159,0 0,-0.99 -3.159,0 0,-1.692 3.61,0 0,-0.99 L 0,-6.301 0,0 z"
             style="fill:#8aa75e;fill-opacity:1;fill-rule:nonzero;stroke:none"
             id="path214" /></g><g
           id="g216"
           transform="translate(336.6309,424.1133)"><path
             d="m 0,0 -60.822,19.116 -2.856,-1.455 0,-2.071 L 3.732,-5.598 0,0 z"
             style="fill:#8aa75e;fill-opacity:1;fill-rule:nonzero;stroke:none"
             id="path218" /></g><g
           id="g220"
           transform="translate(393.3887,317.7607)"><path
             d="m 0,0 -125.723,39.515 -0.59,-4.24 114.375,-35.948 0,-4.427 -115.236,36.219 -0.976,-4.117 116.212,-36.527 0,-4.426 -117.193,36.834 -0.976,-4.117 118.169,-37.143 0,-4.426 -119.148,37.449 -0.383,-1.603 0,-2.701 119.531,-37.571 0,-4.425 -119.531,37.569 0,-4.424 119.531,-37.571 0,-4.426 -119.531,37.569 0,-4.423 119.531,-37.57 0,-4.427 -119.531,37.57 0,-4.426 119.531,-37.568 0,-4.428 -119.531,37.57 0,-4.425 L 0,-66.385 l 4.428,0 0,66.398 L 0,0 z"
             style="fill:#8aa75e;fill-opacity:1;fill-rule:nonzero;stroke:none"
             id="path222" /></g><g
           id="g224"
           transform="translate(397.8477,388.5713)"><path
             d="m 0,0 -4.459,0 -120.436,37.854 0,-4.424 108.499,-34.103 0,-4.427 -108.499,34.102 0,-4.424 108.499,-34.102 0,-4.427 -108.499,34.101 0,-4.423 108.499,-34.102 0,-4.428 -108.499,34.103 0,-4.425 108.499,-34.102 0,-4.426 -109.055,34.276 -0.59,-4.239 109.645,-34.462 0,-4.427 -110.237,34.649 -0.592,-4.24 110.829,-34.834 0,-4.426 -111.42,35.02 -0.59,-4.239 112.01,-35.205 0,-4.427 -112.602,35.391 -0.592,-4.24 125.131,-39.328 4.428,0 L 0,0 z"
             style="fill:#8aa75e;fill-opacity:1;fill-rule:nonzero;stroke:none"
             id="path226" /></g><g
           id="g228"
           transform="translate(332.8125,429.8418)"><path
             d="M 0,0 -5.053,5.923 -46.252,18.864 -51.629,16.125 0.086,-0.129 0,0 z"
             style="fill:#8aa75e;fill-opacity:1;fill-rule:nonzero;stroke:none"
             id="path230" /></g><g
           id="g232"
           transform="translate(397.8477,415.126)"><path
             d="m 0,0 -4.389,0 -30.275,9.511 -6.252,-2.478 24.52,-7.707 0,-4.426 -30.749,9.664 -6.228,-2.467 36.977,-11.622 0,-4.427 -108.499,34.102 0,-4.423 120.436,-37.855 4.428,0 L 0,0 z"
             style="fill:#8aa75e;fill-opacity:1;fill-rule:nonzero;stroke:none"
             id="path234" /></g><g
           id="g236"
           transform="translate(397.8164,246.9482)"><path
             d="m 0,0 -4.428,0 -131.468,41.322 0,-4.424 119.531,-37.57 0,-4.428 -119.531,37.571 0,-4.424 119.531,-37.57 0,-4.426 -119.531,37.568 0,-4.424 130.107,-40.871 5.789,0 L 0,0 z"
             style="fill:#8aa75e;fill-opacity:1;fill-rule:nonzero;stroke:none"
             id="path238" /></g><g
           id="g240"
           transform="translate(293.6582,450.3936)"><path
             d="M 0,0 13.965,-4.435 6.416,1.06 0,0 z"
             style="fill:#8aa75e;fill-opacity:1;fill-rule:nonzero;stroke:none"
             id="path242" /></g><g
           id="g244"
           transform="translate(395.6035,317.7598)"><path
             d="m 0,0 2.342,0 124.443,39.113 2.533,-3.629 -115.039,-36.156 0,-4.428 117.575,36.954 0.322,-0.461 1.359,-3.434 -119.256,-37.484 0,-4.425 119.532,37.569 0,-4.426 -119.532,-37.569 0,-4.426 119.532,37.57 0,-4.426 -119.532,-37.57 0,-4.425 117.932,37.065 0.103,-4.391 -118.035,-37.1 0,-4.426 118.139,37.13 0.103,-4.391 -118.242,-37.163 0,-4.427 118.346,37.196 0.104,-4.392 -118.45,-37.228 0,-4.428 118.553,37.262 0.104,-4.393 L 2.342,-66.384 0,-66.384 0,0 z"
             style="fill:#72844f;fill-opacity:1;fill-rule:nonzero;stroke:none"
             id="path246" /></g><g
           id="g248"
           transform="translate(395.6035,388.5659)"><path
             d="m 0,0 2.342,0 131.469,41.321 0,-4.425 -119.532,-37.569 0,-4.427 119.532,37.57 0,-4.425 -119.532,-37.569 0,-4.427 119.532,37.569 0,-4.425 -119.532,-37.568 0,-4.428 119.532,37.571 0,-4.426 -119.532,-37.569 0,-4.426 119.532,37.569 0,-4.426 -119.532,-37.568 0,-4.427 119.532,37.569 0,-4.424 -119.532,-37.569 0,-4.428 119.532,37.57 0,-2.72 -0.883,-1.983 -118.649,-37.291 0,-4.426 116.354,36.569 -2.293,-5.145 L 2.342,-66.382 0,-66.382 0,0 z"
             style="fill:#72844f;fill-opacity:1;fill-rule:nonzero;stroke:none"
             id="path250" /></g><g
           id="g252"
           transform="translate(395.6035,415.1206)"><path
             d="M 0,0 2.373,0 76.975,23.452 95.1,24.729 14.279,-0.674 l 0,-4.426 98.967,31.105 9.141,0.643 1.855,-1.611 -109.963,-34.562 0,-4.427 113.707,35.738 3.741,-3.248 L 2.342,-22.128 0,-22.128 0,0 z"
             style="fill:#72844f;fill-opacity:1;fill-rule:nonzero;stroke:none"
             id="path254" /></g><g
           id="g256"
           transform="translate(395.6191,246.9482)"><path
             d="m 0,0 2.326,0 130.697,41.08 0.104,-4.392 -118.863,-37.36 0,-4.428 118.966,37.393 0.104,-4.391 -119.07,-37.425 0,-4.426 119.174,37.457 0.103,-4.393 L 3.877,-21.676 0,-21.676 0,0 z"
             style="fill:#72844f;fill-opacity:1;fill-rule:nonzero;stroke:none"
             id="path258" /></g></g></g></g></svg>